<svg xmlns="http://www.w3.org/2000/svg"  viewBox="0 0 100 100" width="100px" height="100px"><path fill="#e0decf" d="M76,82H24c-3.314,0-6-2.686-6-6V24c0-3.314,2.686-6,6-6h52c3.314,0,6,2.686,6,6v52	C82,79.314,79.314,82,76,82z"/><path fill="#fefdef" d="M75.5,73h-51c-3.59,0-6.5-2.91-6.5-6.5V24c0-3.314,2.686-6,6-6h52c3.314,0,6,2.686,6,6v42.5	C82,70.09,79.09,73,75.5,73z"/><path fill="#1f212b" d="M76,83H24c-3.86,0-7-3.14-7-7V24c0-3.86,3.14-7,7-7h52c3.86,0,7,3.14,7,7v52C83,79.86,79.86,83,76,83	z M24,19c-2.757,0-5,2.243-5,5v52c0,2.757,2.243,5,5,5h52c2.757,0,5-2.243,5-5V24c0-2.757-2.243-5-5-5H24z"/><path fill="#1f212b" d="M58.5,73h-34c-3.584,0-6.5-2.916-6.5-6.5c0-0.276,0.224-0.5,0.5-0.5s0.5,0.224,0.5,0.5	c0,3.033,2.467,5.5,5.5,5.5h34c0.276,0,0.5,0.224,0.5,0.5S58.776,73,58.5,73z"/><path fill="#1f212b" d="M75.5,73c-0.276,0-0.5-0.224-0.5-0.5s0.224-0.5,0.5-0.5c3.033,0,5.5-2.467,5.5-5.5	c0-0.276,0.224-0.5,0.5-0.5s0.5,0.224,0.5,0.5C82,70.084,79.084,73,75.5,73z"/><path fill="#1f212b" d="M69.5,73h-1c-0.276,0-0.5-0.224-0.5-0.5s0.224-0.5,0.5-0.5h1c0.276,0,0.5,0.224,0.5,0.5	S69.776,73,69.5,73z"/><path fill="#1f212b" d="M65.5,73h-4c-0.276,0-0.5-0.224-0.5-0.5s0.224-0.5,0.5-0.5h4c0.276,0,0.5,0.224,0.5,0.5	S65.776,73,65.5,73z"/><path fill="#1f212b" d="M31,56.899V36.101c0-0.335,0.146-0.603,0.44-0.802c0.294-0.2,0.64-0.299,1.039-0.299h11.043	c0.357,0,0.624,0.142,0.803,0.425c0.178,0.283,0.268,0.624,0.268,1.022c0,0.42-0.094,0.776-0.283,1.07	C44.121,37.811,43.858,38,43.522,38h-9.187v7.163h4.877c0.335,0,0.598,0.131,0.787,0.393c0.189,0.263,0.283,0.582,0.283,0.959	c0,0.336-0.089,0.635-0.268,0.897c-0.178,0.263-0.446,0.393-0.803,0.393h-4.877v9.093c0,0.357-0.163,0.63-0.487,0.818	C33.521,57.905,33.128,58,32.667,58c-0.44,0-0.829-0.095-1.164-0.283C31.168,57.528,31,57.256,31,56.899z"/><path fill="#1f212b" d="M46.304,39.776c0-0.425,0.133-0.779,0.397-1.064c0.075-0.08,3.495-3.367,3.495-3.367	C50.424,35.115,50.704,35,51.037,35c0.373,0,0.711,0.099,1.011,0.298c0.301,0.199,0.452,0.466,0.452,0.801V56.9	c0,0.336-0.167,0.603-0.498,0.801C51.67,57.901,51.286,58,50.85,58c-0.457,0-0.845-0.099-1.167-0.298S49.2,57.236,49.2,56.901V39.5	c0,0-1.14,1.235-1.166,1.257C47.847,40.919,47.617,41,47.398,41c-0.235,0-0.498-0.047-0.767-0.357	C46.397,40.373,46.304,40.111,46.304,39.776z"/><path fill="#1f212b" d="M55.471,56.9v-3.048c0-0.943,0.342-1.865,1.026-2.765c0.685-0.901,1.528-1.718,2.529-2.452	l3.021-2.198c1.006-0.732,1.861-1.539,2.564-2.418c0.703-0.879,1.054-1.758,1.054-2.638c0-0.879-0.289-1.648-0.865-2.308	c-0.577-0.659-1.422-0.989-2.533-0.989c-0.945,0-1.71,0.261-2.297,0.781c-0.588,0.52-0.881,1.291-0.881,2.311	c0,0.333-0.163,0.625-0.488,0.875s-0.751,0.375-1.275,0.375c-1.006,0-1.51-0.619-1.51-1.856c0-1.636,0.634-2.973,1.904-4.012	C58.99,35.519,60.505,35,62.267,35c1.867,0,3.455,0.584,4.766,1.753C68.344,37.922,69,39.433,69,41.287	c0,1.257-0.351,2.434-1.053,3.533c-0.704,1.099-1.553,2.031-2.549,2.795c-0.997,0.765-1.993,1.487-2.99,2.167	c-0.997,0.681-1.846,1.366-2.549,2.057c-0.703,0.691-1.053,1.361-1.053,2.01V55h9.092c0.294,0,0.551,0.142,0.771,0.425	c0.219,0.283,0.33,0.625,0.33,1.022c0,0.399-0.11,0.793-0.328,1.097C68.452,57.848,68.197,58,67.906,58H56.94	c-0.334,0-0.662-0.105-0.985-0.314C55.632,57.476,55.471,57.215,55.471,56.9z"/></svg>